<mxfile host="Electron" modified="2024-06-07T15:36:29.661Z" agent="Mozilla/5.0 (X11; Linux x86_64) AppleWebKit/537.36 (KHTML, like Gecko) draw.io/24.4.8 Chrome/124.0.6367.207 Electron/30.0.6 Safari/537.36" etag="LZA6TLAsPPjT8b05j3f-" version="24.4.8" type="device">
  <diagram name="Page-1" id="tMPGpnKy-ZowUA-VL0b9">
    <mxGraphModel dx="808" dy="479" grid="1" gridSize="10" guides="1" tooltips="1" connect="1" arrows="1" fold="1" page="1" pageScale="1" pageWidth="850" pageHeight="1100" math="0" shadow="0">
      <root>
        <mxCell id="0" />
        <mxCell id="1" parent="0" />
        <mxCell id="voaq_ugr3uCPQvjhjeNq-1" value="" style="rounded=0;whiteSpace=wrap;html=1;fillColor=#fff2cc;strokeColor=#d6b656;" parent="1" vertex="1">
          <mxGeometry x="40" y="40" width="190" height="200" as="geometry" />
        </mxCell>
        <mxCell id="GLRb8waI0ZLwu5YfJsHA-3" value="" style="verticalLabelPosition=bottom;html=1;verticalAlign=top;align=center;shape=mxgraph.azure.mobile;pointerEvents=1;fillColor=#dae8fc;strokeColor=#6c8ebf;" parent="1" vertex="1">
          <mxGeometry x="70" y="55" width="60" height="110" as="geometry" />
        </mxCell>
        <mxCell id="GLRb8waI0ZLwu5YfJsHA-5" value="" style="verticalLabelPosition=bottom;html=1;verticalAlign=top;align=center;shape=mxgraph.azure.tablet;pointerEvents=1;fillColor=#dae8fc;strokeColor=#6c8ebf;" parent="1" vertex="1">
          <mxGeometry x="400" y="57.5" width="160" height="105" as="geometry" />
        </mxCell>
        <mxCell id="voaq_ugr3uCPQvjhjeNq-2" value="RF Box" style="text;html=1;align=center;verticalAlign=middle;resizable=0;points=[];autosize=1;strokeColor=none;fillColor=none;" parent="1" vertex="1">
          <mxGeometry x="140" y="60" width="60" height="30" as="geometry" />
        </mxCell>
        <mxCell id="voaq_ugr3uCPQvjhjeNq-3" value="AWDL&lt;br&gt;&lt;div style=&quot;font-size: 14px;&quot;&gt;fe80::&lt;b&gt;&amp;lt;a&amp;gt;&lt;/b&gt;/10&lt;br style=&quot;font-size: 14px;&quot;&gt;&lt;/div&gt;" style="endArrow=classic;dashed=1;html=1;strokeWidth=1;rounded=0;exitX=1;exitY=0.5;exitDx=0;exitDy=0;exitPerimeter=0;entryX=0;entryY=0.5;entryDx=0;entryDy=0;entryPerimeter=0;startArrow=classic;startFill=1;endFill=1;fontStyle=0;fontSize=14;labelBorderColor=none;textShadow=0;spacingLeft=0;spacingRight=0;spacing=2;verticalAlign=bottom;" parent="1" source="GLRb8waI0ZLwu5YfJsHA-3" target="GLRb8waI0ZLwu5YfJsHA-5" edge="1">
          <mxGeometry x="0.2857" width="50" height="50" relative="1" as="geometry">
            <mxPoint x="360" y="250" as="sourcePoint" />
            <mxPoint x="410" y="200" as="targetPoint" />
            <mxPoint as="offset" />
          </mxGeometry>
        </mxCell>
        <mxCell id="voaq_ugr3uCPQvjhjeNq-4" value="Sender" style="text;html=1;align=center;verticalAlign=middle;resizable=0;points=[];autosize=1;strokeColor=none;fillColor=none;fontSize=16;fontStyle=1" parent="1" vertex="1">
          <mxGeometry x="95" y="10" width="80" height="30" as="geometry" />
        </mxCell>
        <mxCell id="voaq_ugr3uCPQvjhjeNq-6" value="" style="verticalLabelPosition=bottom;html=1;verticalAlign=top;align=center;strokeColor=default;fillColor=#FFFFFF;shape=mxgraph.azure.laptop;pointerEvents=1;" parent="1" vertex="1">
          <mxGeometry x="200" y="270" width="150" height="90" as="geometry" />
        </mxCell>
        <mxCell id="voaq_ugr3uCPQvjhjeNq-8" value="&lt;div&gt;Capture&amp;nbsp;&lt;/div&gt;&lt;div&gt;PCAP&lt;/div&gt;" style="endArrow=none;html=1;rounded=0;fontSize=14;fontStyle=0;verticalAlign=bottom;labelBackgroundColor=none;entryX=0.084;entryY=0.338;entryDx=0;entryDy=0;entryPerimeter=0;" parent="1" source="GLRb8waI0ZLwu5YfJsHA-3" target="voaq_ugr3uCPQvjhjeNq-6" edge="1">
          <mxGeometry x="0.2882" width="50" height="50" relative="1" as="geometry">
            <mxPoint x="360" y="220" as="sourcePoint" />
            <mxPoint x="180" y="300" as="targetPoint" />
            <Array as="points">
              <mxPoint x="50" y="110" />
              <mxPoint x="50" y="300" />
            </Array>
            <mxPoint as="offset" />
          </mxGeometry>
        </mxCell>
        <mxCell id="voaq_ugr3uCPQvjhjeNq-9" value="USB" style="text;html=1;align=center;verticalAlign=middle;resizable=0;points=[];autosize=1;strokeColor=none;fillColor=none;" parent="1" vertex="1">
          <mxGeometry x="160" y="300" width="50" height="30" as="geometry" />
        </mxCell>
        <mxCell id="voaq_ugr3uCPQvjhjeNq-10" value="Receiver" style="text;html=1;align=center;verticalAlign=middle;resizable=0;points=[];autosize=1;strokeColor=none;fillColor=none;fontSize=16;fontStyle=1" parent="1" vertex="1">
          <mxGeometry x="435" y="10" width="90" height="30" as="geometry" />
        </mxCell>
        <mxCell id="voaq_ugr3uCPQvjhjeNq-11" value="&lt;div&gt;Capture&lt;/div&gt;&lt;div&gt;PCAP&lt;/div&gt;" style="endArrow=none;html=1;rounded=0;entryX=0.749;entryY=1.003;entryDx=0;entryDy=0;entryPerimeter=0;fontStyle=0;fontSize=14;verticalAlign=bottom;labelBackgroundColor=none;exitX=0.916;exitY=0.334;exitDx=0;exitDy=0;exitPerimeter=0;" parent="1" source="voaq_ugr3uCPQvjhjeNq-6" target="GLRb8waI0ZLwu5YfJsHA-5" edge="1">
          <mxGeometry x="-0.0456" width="50" height="50" relative="1" as="geometry">
            <mxPoint x="360" y="300" as="sourcePoint" />
            <mxPoint x="410" y="170" as="targetPoint" />
            <Array as="points">
              <mxPoint x="520" y="300" />
            </Array>
            <mxPoint as="offset" />
          </mxGeometry>
        </mxCell>
        <mxCell id="voaq_ugr3uCPQvjhjeNq-12" value="USB" style="text;html=1;align=center;verticalAlign=middle;resizable=0;points=[];autosize=1;strokeColor=none;fillColor=none;" parent="1" vertex="1">
          <mxGeometry x="340" y="300" width="50" height="30" as="geometry" />
        </mxCell>
        <mxCell id="voaq_ugr3uCPQvjhjeNq-13" value="&lt;div&gt;Measurement&lt;/div&gt;&lt;div&gt;Laptop&lt;br&gt;&lt;/div&gt;" style="text;html=1;align=center;verticalAlign=middle;resizable=0;points=[];autosize=1;strokeColor=none;fillColor=none;" parent="1" vertex="1">
          <mxGeometry x="225" y="280" width="100" height="40" as="geometry" />
        </mxCell>
        <mxCell id="voaq_ugr3uCPQvjhjeNq-14" value="" style="points=[[0.03,0.36,0],[0.18,0,0],[0.5,0.34,0],[0.82,0,0],[0.97,0.36,0],[1,0.67,0],[0.975,0.975,0],[0.5,1,0],[0.025,0.975,0],[0,0.67,0]];verticalLabelPosition=bottom;sketch=0;html=1;verticalAlign=top;aspect=fixed;align=center;pointerEvents=1;shape=mxgraph.cisco19.wireless_access_point;fillColor=#333333;strokeColor=none;" parent="1" vertex="1">
          <mxGeometry x="300" y="140" width="80" height="80" as="geometry" />
        </mxCell>
        <mxCell id="voaq_ugr3uCPQvjhjeNq-15" value="" style="points=[[0.03,0.36,0],[0.18,0,0],[0.5,0.34,0],[0.82,0,0],[0.97,0.36,0],[1,0.67,0],[0.975,0.975,0],[0.5,1,0],[0.025,0.975,0],[0,0.67,0]];verticalLabelPosition=bottom;sketch=0;html=1;verticalAlign=top;aspect=fixed;align=center;pointerEvents=1;shape=mxgraph.cisco19.wireless_access_point;fillColor=#333333;strokeColor=none;" parent="1" vertex="1">
          <mxGeometry x="145" y="140" width="80" height="80" as="geometry" />
        </mxCell>
        <mxCell id="voaq_ugr3uCPQvjhjeNq-16" value="&lt;div&gt;WiFi&lt;br&gt;&lt;/div&gt;&lt;div&gt;fe80::&lt;b&gt;&amp;lt;c&amp;gt;&lt;/b&gt;/10&lt;br&gt;&lt;/div&gt;" style="endArrow=none;dashed=1;html=1;rounded=0;exitX=1;exitY=0.67;exitDx=0;exitDy=0;exitPerimeter=0;entryX=0.249;entryY=0.997;entryDx=0;entryDy=0;entryPerimeter=0;fontStyle=0;fontSize=15;labelBorderColor=none;textShadow=0;verticalAlign=top;" parent="1" source="voaq_ugr3uCPQvjhjeNq-14" target="GLRb8waI0ZLwu5YfJsHA-5" edge="1">
          <mxGeometry x="0.2745" width="50" height="50" relative="1" as="geometry">
            <mxPoint x="360" y="290" as="sourcePoint" />
            <mxPoint x="410" y="240" as="targetPoint" />
            <Array as="points">
              <mxPoint x="440" y="194" />
            </Array>
            <mxPoint as="offset" />
          </mxGeometry>
        </mxCell>
        <mxCell id="voaq_ugr3uCPQvjhjeNq-20" value="&lt;div style=&quot;font-size: 14px;&quot;&gt;WiFi&lt;br&gt;&lt;/div&gt;&lt;div style=&quot;font-size: 14px;&quot;&gt;fe80::&lt;b&gt;&amp;lt;b&amp;gt;&lt;/b&gt;/10&lt;br style=&quot;font-size: 14px;&quot;&gt;&lt;/div&gt;" style="endArrow=none;dashed=1;html=1;rounded=0;exitX=0.5;exitY=1;exitDx=0;exitDy=0;exitPerimeter=0;entryX=0;entryY=0.67;entryDx=0;entryDy=0;entryPerimeter=0;fontStyle=0;fontSize=14;labelBorderColor=none;textShadow=0;verticalAlign=top;labelBackgroundColor=none;" parent="1" source="GLRb8waI0ZLwu5YfJsHA-3" target="voaq_ugr3uCPQvjhjeNq-15" edge="1">
          <mxGeometry x="-0.229" width="50" height="50" relative="1" as="geometry">
            <mxPoint x="360" y="250" as="sourcePoint" />
            <mxPoint x="410" y="200" as="targetPoint" />
            <Array as="points">
              <mxPoint x="100" y="193" />
            </Array>
            <mxPoint as="offset" />
          </mxGeometry>
        </mxCell>
        <mxCell id="voaq_ugr3uCPQvjhjeNq-22" value="&lt;div style=&quot;font-size: 14px;&quot;&gt;Network Bridge&lt;/div&gt;&lt;div style=&quot;font-size: 14px;&quot;&gt;&lt;span style=&quot;background-color: initial;&quot;&gt;via&amp;nbsp;&lt;/span&gt;&lt;span style=&quot;background-color: initial;&quot;&gt;Laptop&lt;/span&gt;&lt;/div&gt;" style="endArrow=none;html=1;rounded=0;exitX=0.5;exitY=1;exitDx=0;exitDy=0;exitPerimeter=0;entryX=0.5;entryY=1;entryDx=0;entryDy=0;entryPerimeter=0;fontStyle=2;fontSize=14;labelBorderColor=none;textShadow=0;verticalAlign=top;labelBackgroundColor=none;spacing=-2;" parent="1" source="voaq_ugr3uCPQvjhjeNq-15" target="voaq_ugr3uCPQvjhjeNq-14" edge="1">
          <mxGeometry x="0.7647" width="50" height="50" relative="1" as="geometry">
            <mxPoint x="360" y="270" as="sourcePoint" />
            <mxPoint x="330" y="230" as="targetPoint" />
            <Array as="points">
              <mxPoint x="185" y="230" />
              <mxPoint x="260" y="230" />
              <mxPoint x="260" y="270" />
              <mxPoint x="270" y="270" />
              <mxPoint x="270" y="230" />
              <mxPoint x="340" y="230" />
            </Array>
            <mxPoint as="offset" />
          </mxGeometry>
        </mxCell>
        <mxCell id="Pw6gkgZ2XI63TM83nQ-W-1" value="1" style="ellipse;whiteSpace=wrap;html=1;aspect=fixed;fillColor=#ffe6cc;strokeColor=#d79b00;" vertex="1" parent="1">
          <mxGeometry x="360" y="70" width="30" height="30" as="geometry" />
        </mxCell>
        <mxCell id="Pw6gkgZ2XI63TM83nQ-W-2" value="2" style="ellipse;whiteSpace=wrap;html=1;aspect=fixed;fillColor=#ffe6cc;strokeColor=#d79b00;" vertex="1" parent="1">
          <mxGeometry x="443" y="166" width="30" height="30" as="geometry" />
        </mxCell>
        <mxCell id="Pw6gkgZ2XI63TM83nQ-W-3" value="2" style="ellipse;whiteSpace=wrap;html=1;aspect=fixed;fillColor=#ffe6cc;strokeColor=#d79b00;" vertex="1" parent="1">
          <mxGeometry x="66" y="168" width="30" height="30" as="geometry" />
        </mxCell>
        <mxCell id="Pw6gkgZ2XI63TM83nQ-W-5" value="3" style="ellipse;whiteSpace=wrap;html=1;aspect=fixed;fillColor=#ffe6cc;strokeColor=#d79b00;" vertex="1" parent="1">
          <mxGeometry x="250" y="196" width="30" height="30" as="geometry" />
        </mxCell>
        <mxCell id="Pw6gkgZ2XI63TM83nQ-W-6" value="4" style="ellipse;whiteSpace=wrap;html=1;aspect=fixed;fillColor=#ffe6cc;strokeColor=#d79b00;" vertex="1" parent="1">
          <mxGeometry x="179" y="266" width="30" height="30" as="geometry" />
        </mxCell>
      </root>
    </mxGraphModel>
  </diagram>
</mxfile>
